<svg xmlns="http://www.w3.org/2000/svg" viewBox="0 0 32 32" fill="none">
  <rect width="32" height="32" rx="8" fill="white"/>
  <path d="M7 9.5C7 7.57 8.57 6 10.5 6h9.8c1.38 0 2.5 1.12 2.5 2.5v1.2c0 .55.45 1 1 1h2.2C24.43 10.7 26 12.27 26 14.2v8.3c0 1.93-1.57 3.5-3.5 3.5h-9.8c-1.38 0-2.5-1.12-2.5-2.5v-1.2c0-.55-.45-1-1-1H9.5C7.57 21.3 6 19.73 6 17.8V9.5z" stroke="#111" stroke-width="1.75" stroke-linejoin="round"/>
  <path d="M11 15.5h3.2M17.8 15.5h3.2M11 19h10.2" stroke="#111" stroke-width="1.75" stroke-linecap="round"/>
</svg>
